<svg xmlns="http://www.w3.org/2000/svg" xmlns:xlink="http://www.w3.org/1999/xlink" version="1.1" x="0px" y="0px" viewBox="0 0 100 125" enable-background="new 0 0 100 100" xml:space="preserve"><path fill="#ffffff" d="M97.641,22.499c-0.004-0.035-0.009-0.067-0.02-0.101c-0.004-0.016-0.004-0.032-0.01-0.048  c-0.007-0.016-0.021-0.028-0.029-0.043c-0.017-0.031-0.035-0.06-0.059-0.087c-0.01-0.012-0.016-0.028-0.027-0.04  c-0.001-0.001-0.001-0.002-0.002-0.003L80,4.898c-0.02-0.019-0.045-0.027-0.064-0.042c-0.035-0.026-0.066-0.053-0.107-0.07  c-0.049-0.019-0.099-0.024-0.15-0.03c-0.018-0.002-0.033-0.01-0.053-0.01H64.83H35.35H20.627c-0.025,0-0.047,0.011-0.072,0.014  c-0.043,0.006-0.088,0.009-0.13,0.026c-0.051,0.021-0.096,0.055-0.138,0.09c-0.011,0.01-0.024,0.013-0.034,0.023L20.251,4.9  C20.25,4.901,20.25,4.901,20.25,4.902L2.723,22.176c0,0,0,0.001-0.001,0.001c-0.012,0.013-0.019,0.03-0.03,0.044  c-0.021,0.026-0.041,0.054-0.056,0.084c-0.01,0.015-0.023,0.029-0.03,0.045c-0.007,0.015-0.006,0.031-0.011,0.047  c-0.01,0.033-0.016,0.066-0.02,0.101c-0.003,0.019-0.012,0.037-0.012,0.056c0,0,0,0,0,0.001c0,0.015,0.008,0.028,0.009,0.043  c0.003,0.033,0.009,0.065,0.019,0.098c0.004,0.02,0.004,0.041,0.013,0.061c0.006,0.017,0.019,0.029,0.027,0.044  c0.008,0.014,0.008,0.028,0.016,0.042l47.047,73.432c0.001,0.002,0.003,0.003,0.005,0.004c0.013,0.021,0.036,0.038,0.053,0.058  c0.022,0.025,0.043,0.049,0.07,0.07c0.008,0.006,0.012,0.012,0.02,0.018c0.004,0.002,0.008,0.008,0.013,0.012  c0.006,0.004,0.012,0.002,0.019,0.006c0.019,0.012,0.038,0.017,0.058,0.025c0.018,0.008,0.03,0.021,0.049,0.027  c0.053,0.018,0.106,0.024,0.16,0.025h0.001l0,0h0.001h0.001l0,0h0.001c0.054-0.001,0.108-0.008,0.161-0.025  c0.019-0.006,0.032-0.02,0.05-0.027c0.019-0.009,0.038-0.016,0.056-0.025c0.005-0.004,0.013-0.002,0.019-0.006  c0.005-0.004,0.009-0.01,0.014-0.012c0.007-0.006,0.012-0.012,0.02-0.018c0.029-0.021,0.049-0.047,0.073-0.073  c0.016-0.019,0.037-0.035,0.05-0.056c0.001-0.002,0.003-0.002,0.004-0.004l46.975-73.432c0.008-0.012,0.008-0.026,0.016-0.039  c0.008-0.016,0.021-0.029,0.027-0.045c0.01-0.021,0.01-0.043,0.015-0.063c0.01-0.033,0.015-0.064,0.019-0.097  c0-0.002,0-0.004,0-0.005c0.002-0.013,0.008-0.024,0.008-0.038c0-0.001,0-0.001,0-0.001C97.652,22.536,97.645,22.518,97.641,22.499z   M20.846,5.812h13.637L26.31,22.023H4.398L20.846,5.812z M79.405,5.812L95.82,22.023H73.94L65.7,5.812H79.405z M64.504,5.812  l8.24,16.211H27.506l8.173-16.211H64.504z M72.883,23.09L50.145,94.238L27.369,23.09H72.883z M26.25,23.09l22.144,69.176  L4.072,23.09H26.25z M74.003,23.09h22.143L51.895,92.264L74.003,23.09z"/></svg>
