<svg xmlns:dc="http://purl.org/dc/elements/1.1/" xmlns:cc="http://creativecommons.org/ns#" xmlns:rdf="http://www.w3.org/1999/02/22-rdf-syntax-ns#" xmlns:svg="http://www.w3.org/2000/svg" xmlns="http://www.w3.org/2000/svg" xmlns:sodipodi="http://sodipodi.sourceforge.net/DTD/sodipodi-0.dtd" xmlns:inkscape="http://www.inkscape.org/namespaces/inkscape" version="1.1" x="0px" y="0px" viewBox="0 0 100 125"><g transform="translate(0,-952.36218)"><path style="text-indent:0;text-transform:none;direction:ltr;block-progression:tb;baseline-shift:baseline;color:#ffffff;enable-background:accumulate;" d="m 67,958.36201 c 1.6447,0 3,1.35524 3,3.00004 l 0,6 c 0,1.6447 -1.3553,3 -3,3 l -4,0 0,14.8125 19.875,46.68755 0.031,0.094 c 1.2485,2.2336 2.094,4.3489 2.094,6.4063 0,2.3351 -0.7269,4.3819 -2.2812,5.8125 -1.5545,1.4306 -3.8382,2.1875 -6.7188,2.1875 l -52,0 c -2.8806,0 -5.1642,-0.7569 -6.7188,-2.1875 -1.5543,-1.4306 -2.2812,-3.4774 -2.2812,-5.8125 0,-2.0574 0.8454,-4.1727 2.0938,-6.4063 l 0.0312,-0.094 19.875,-46.68755 0,-14.8125 -4,0 c -1.6447,0 -3,-1.3553 -3,-3 l 0,-6 c 0,-1.6448 1.3553,-3.00004 3,-3.00004 l 34,0 z m 0,2.00004 -34,0 c -0.5713,0 -1,0.4286 -1,1 l 0,6 c 0,0.5713 0.4287,1 1,1 l 34,0 c 0.5713,0 1,-0.4287 1,-1 l 0,-6 c 0,-0.5714 -0.4287,-1 -1,-1 z m -6,10 -22,0 0,15 0,0.1875 -0.094,0.1875 -13,30.53125 c 2.4326,2.1676 4.2258,3.4262 5.875,4.125 1.8172,0.77 3.5797,0.9688 6.25,0.9688 3.9282,0 7.521,-2.342 11.3126,-4.8438 3.7914,-2.5017 7.7831,-5.1562 12.625,-5.1562 3.9184,0 7.8107,0.638 11.3437,3.125 l -12.2187,-28.75005 -0.094,-0.1875 0,-0.1875 0,-15 z m -12,11 c 2.1973,0 4,1.8026 4,4 0,2.1973 -1.8027,4 -4,4 -2.1973,0 -4,-1.8027 -4,-4 0,-2.1974 1.8027,-4 4,-4 z m 0,2 c -1.1163,0 -2,0.8836 -2,2 0,1.1163 0.8837,2 2,2 1.1163,0 2,-0.8837 2,-2 0,-1.1164 -0.8837,-2 -2,-2 z m 6,12 c 2.1973,0 4,1.8026 4,4 0,2.19735 -1.8027,4.00005 -4,4.00005 -2.1973,0 -4,-1.8027 -4,-4.00005 0,-2.1974 1.8027,-4 4,-4 z m 0,2 c -1.1163,0 -2,0.8836 -2,2 0,1.11635 0.8837,2.00005 2,2.00005 1.1163,0 2,-0.8837 2,-2.00005 0,-1.1164 -0.8837,-2 -2,-2 z m -14,8.00005 c 2.1973,0 4,1.8027 4,4 0,2.1973 -1.8027,4 -4,4 -2.1973,0 -4,-1.8027 -4,-4 0,-2.1973 1.8027,-4 4,-4 z m 0,2 c -1.1163,0 -2,0.8836 -2,2 0,1.1164 0.8837,2 2,2 1.1163,0 2,-0.8836 2,-2 0,-1.1164 -0.8837,-2 -2,-2 z m 20.9688,6 c -4.0961,0 -7.745,2.3142 -11.5313,4.8125 -3.7863,2.4983 -7.7054,5.1875 -12.4063,5.1875 -2.7599,0 -4.8775,-0.2125 -7.0312,-1.125 -1.8165,-0.7697 -3.6439,-2.0616 -5.9062,-4.0313 l -6.1876,14.5313 0,0.062 -0.031,0.031 c -1.1946,2.1214 -1.875,4.0111 -1.875,5.5312 0,1.933 0.5672,3.3414 1.6562,4.3438 1.089,1.0024 2.7986,1.6563 5.3436,1.6563 l 52,0 c 2.545,0 4.2545,-0.6539 5.3438,-1.6563 1.089,-1.0017 1.6562,-2.41 1.6562,-4.343 0,-1.5202 -0.6804,-3.4098 -1.875,-5.5314 l -0.031,-0.031 0,-0.062 -5.8438,-13.7501 -0.031,0 c -3.9662,-4.7632 -8.2577,-5.625 -13.25,-5.625 z" fill="#ffffff" fill-opacity="1" stroke="none" marker="none" visibility="visible" display="inline" overflow="visible"/></g></svg>
