<svg xmlns="http://www.w3.org/2000/svg" xmlns:xlink="http://www.w3.org/1999/xlink" version="1.1" x="0" y="0" viewBox="0 0 100 125" enable-background="new 0 0 100 100" xml:space="preserve">
  <path fill="#ffffff" d="M60.91 47.49l6.51-3.9 -5.44-3.34 4.79-2.87 -10.51-6.46 -12.52 7.25 0.01 0L21.16 51.23l20.2 12.26 23.06-13.85L60.91 47.49zM65.08 43.58l-5.31 3.19 -4.3-2.61 5.33-3.2L65.08 43.58zM56.23 32.32l8.2 5.04 -3.62 2.17 -0.03-0.02 -6.4 3.7 -8.28-5.03L56.23 32.32zM23.53 51.26l8.35-4.83 0.28 0.18c0.08 0.05 0.17 0.08 0.27 0.08 0.16 0 0.31-0.08 0.41-0.22 0.12-0.18 0.09-0.41-0.04-0.57l11.96-6.92 8.23 5.06 -0.01 0.01 1.82 1.1 1.03 0.63c-0.02 0.12-0.01 0.24 0.06 0.35 0.09 0.15 0.25 0.23 0.41 0.23 0.09 0 0.18-0.02 0.26-0.07l0.05-0.03 5.5 3.38L41.36 62.08 23.53 51.26z"/>
  <path fill="#ffffff" d="M66.34 52.75L44.45 65.89c-0.29 0.17-0.38 0.54-0.21 0.83 0.11 0.19 0.31 0.29 0.52 0.29 0.11 0 0.21-0.03 0.31-0.09L66.96 53.78c0.29-0.17 0.38-0.54 0.21-0.83C67 52.67 66.63 52.57 66.34 52.75z"/>
  <path fill="#ffffff" d="M64.97 57.61L47.51 68.03c-0.29 0.17-0.38 0.54-0.21 0.83 0.11 0.19 0.31 0.3 0.52 0.3 0.11 0 0.21-0.03 0.31-0.09l17.46-10.42c0.29-0.17 0.38-0.54 0.21-0.83C65.63 57.53 65.26 57.44 64.97 57.61z"/>
  <path fill="#ffffff" d="M39.15 50.02l-0.36-0.23c-0.22-0.15-0.52-0.08-0.67 0.14 -0.15 0.22-0.08 0.52 0.14 0.67l0.36 0.24c0.08 0.05 0.17 0.08 0.27 0.08 0.16 0 0.31-0.08 0.41-0.22C39.44 50.47 39.37 50.17 39.15 50.02z"/>
  <path fill="#ffffff" d="M42.38 52.14l-0.36-0.23c-0.22-0.15-0.52-0.08-0.67 0.14 -0.15 0.22-0.08 0.52 0.14 0.67l0.36 0.24c0.08 0.05 0.17 0.08 0.27 0.08 0.16 0 0.31-0.08 0.41-0.22C42.67 52.58 42.6 52.28 42.38 52.14z"/>
  <path fill="#ffffff" d="M40.91 51.75c0.15-0.22 0.08-0.52-0.14-0.67l-0.36-0.23c-0.22-0.15-0.52-0.08-0.67 0.14 -0.15 0.22-0.08 0.52 0.14 0.67l0.36 0.23c0.08 0.05 0.17 0.08 0.26 0.08C40.66 51.97 40.81 51.89 40.91 51.75z"/>
  <path fill="#ffffff" d="M35.92 47.91l-0.36-0.23c-0.22-0.15-0.52-0.08-0.67 0.14 -0.15 0.22-0.08 0.52 0.14 0.67l0.36 0.24c0.08 0.05 0.17 0.08 0.27 0.08 0.16 0 0.31-0.08 0.41-0.22C36.21 48.36 36.14 48.06 35.92 47.91z"/>
  <path fill="#ffffff" d="M34.3 46.86l-0.36-0.23c-0.22-0.15-0.52-0.08-0.67 0.14 -0.15 0.22-0.08 0.52 0.14 0.67l0.36 0.24c0.08 0.05 0.17 0.08 0.27 0.08 0.16 0 0.31-0.08 0.41-0.22C34.59 47.3 34.53 47 34.3 46.86z"/>
  <path fill="#ffffff" d="M37.53 48.97l-0.36-0.23c-0.22-0.15-0.52-0.08-0.67 0.14 -0.15 0.22-0.08 0.52 0.14 0.67l0.36 0.24c0.08 0.05 0.17 0.08 0.27 0.08 0.16 0 0.31-0.08 0.41-0.22C37.82 49.42 37.76 49.11 37.53 48.97z"/>
  <path fill="#ffffff" d="M45.61 54.25l-0.36-0.23c-0.22-0.15-0.52-0.08-0.67 0.14 -0.15 0.22-0.08 0.52 0.14 0.67l0.36 0.24c0.08 0.05 0.17 0.08 0.27 0.08 0.16 0 0.31-0.08 0.41-0.22C45.9 54.7 45.84 54.4 45.61 54.25z"/>
  <path fill="#ffffff" d="M44.14 53.86c0.15-0.22 0.08-0.52-0.14-0.67l-0.36-0.23c-0.22-0.15-0.52-0.08-0.67 0.14 -0.15 0.22-0.08 0.52 0.14 0.67l0.36 0.23c0.08 0.05 0.17 0.08 0.26 0.08C43.89 54.08 44.04 54.01 44.14 53.86z"/>
  <path fill="#ffffff" d="M48.98 57.03c0.15-0.22 0.08-0.52-0.14-0.67l-0.36-0.23c-0.22-0.15-0.52-0.08-0.67 0.14 -0.15 0.22-0.08 0.52 0.14 0.67l0.36 0.23c0.08 0.05 0.17 0.08 0.26 0.08C48.73 57.25 48.89 57.17 48.98 57.03z"/>
  <path fill="#ffffff" d="M47.37 55.98c0.15-0.22 0.08-0.52-0.14-0.67l-0.36-0.23c-0.22-0.15-0.52-0.08-0.67 0.14 -0.15 0.22-0.08 0.52 0.14 0.67l0.36 0.23c0.08 0.05 0.17 0.08 0.26 0.08C47.12 56.19 47.27 56.12 47.37 55.98z"/>
  <path fill="#ffffff" d="M49.29 50.18c0.09 0.15 0.25 0.23 0.41 0.23 0.09 0 0.18-0.02 0.25-0.07l0.37-0.22c0.23-0.14 0.3-0.44 0.16-0.67 -0.14-0.23-0.44-0.3-0.67-0.16l-0.36 0.23C49.22 49.66 49.15 49.95 49.29 50.18z"/>
  <path fill="#ffffff" d="M48.06 51.43c0.09 0 0.17-0.02 0.25-0.07l0.37-0.22c0.23-0.14 0.3-0.44 0.16-0.67 -0.14-0.23-0.44-0.3-0.67-0.16l-0.36 0.23c-0.23 0.14-0.3 0.44-0.16 0.67C47.74 51.34 47.9 51.43 48.06 51.43z"/>
  <path fill="#ffffff" d="M51.35 49.4c0.09 0 0.18-0.02 0.25-0.07l0.37-0.22c0.23-0.14 0.3-0.44 0.16-0.67 -0.14-0.23-0.44-0.3-0.67-0.16l-0.36 0.23c-0.23 0.14-0.3 0.44-0.16 0.67C51.03 49.32 51.19 49.4 51.35 49.4z"/>
  <path fill="#ffffff" d="M52.99 48.39c0.09 0 0.18-0.02 0.25-0.07l0.37-0.22c0.23-0.14 0.3-0.44 0.16-0.67 -0.14-0.23-0.44-0.3-0.67-0.16l-0.36 0.23c-0.23 0.14-0.3 0.44-0.16 0.67C52.67 48.3 52.83 48.39 52.99 48.39z"/>
  <path fill="#ffffff" d="M54.22 47.14c0.09 0.15 0.25 0.23 0.41 0.23 0.09 0 0.18-0.02 0.26-0.07l0.37-0.23c0.23-0.14 0.3-0.44 0.16-0.67 -0.14-0.23-0.44-0.3-0.67-0.16l-0.36 0.23C54.15 46.62 54.08 46.92 54.22 47.14z"/>
  <path fill="#ffffff" d="M46.42 52.44c0.09 0 0.17-0.02 0.25-0.07l0.37-0.22c0.23-0.14 0.3-0.44 0.16-0.67 -0.14-0.23-0.44-0.3-0.67-0.16l-0.36 0.23c-0.23 0.14-0.3 0.44-0.16 0.67C46.1 52.36 46.26 52.44 46.42 52.44z"/>
  <path fill="#ffffff" d="M44.78 53.45c0.09 0 0.18-0.02 0.25-0.07l0.37-0.23c0.23-0.14 0.3-0.44 0.16-0.67 -0.14-0.23-0.44-0.3-0.67-0.16l-0.36 0.23c-0.23 0.14-0.3 0.44-0.16 0.67C44.46 53.37 44.61 53.45 44.78 53.45z"/>
  <path fill="#ffffff" d="M99.78 48.45l-8.14-5.15 2.16-5.42 -9.22-0.99 -0.65 1.47L54.73 20.76 0.44 52.18l46.31 28.11 25.4-15.22 -0.52 1.18 10.35 1.33 4.35-10.93L99.78 48.45zM87.44 54.19l3.69-9.37 5.4 3.61L87.44 54.19zM73.25 62.51L46.76 78.29 3.8 52.22 54.71 22.75l28.52 17.19 -9.97 22.62L73.25 62.51zM81.22 66.3l-7.88-1.01 1.59-3.61 3.78 0.69 0.21-1.16 -3.5-0.64 0.52-1.18 4.71 0.92 0.23-1.16 -4.45-0.87 0.52-1.19 3.01 0.46 0.18-1.16 -2.69-0.41 0.56-1.28 4.92 0.8 0.19-1.16 -4.61-0.75 0.49-1.12 5.47 0.88 0.19-1.16 -5.17-0.83 0.52-1.18 3.65 0.51 0.16-1.17 -3.32-0.46 0.56-1.27 4.86 0.64 0.15-1.17 -4.52-0.6 0.56-1.27 3.72 0.37 0.12-1.17 -3.34-0.33 0.5-1.14 5.06 0.6 0.14-1.17 -4.7-0.55 0.66-1.5 3.5 0.36 0.12-1.17 -3.12-0.32 0.54-1.22 6.83 0.73L81.22 66.3z"/>
  <path fill="#ffffff" d="M65.91 45.78l-0.18 0.11c-0.23 0.14-0.3 0.44-0.15 0.67 0.09 0.15 0.25 0.23 0.41 0.23 0.09 0 0.18-0.02 0.26-0.07l0.18-0.11c0.23-0.14 0.3-0.44 0.15-0.67C66.43 45.71 66.13 45.64 65.91 45.78z"/>
  <path fill="#ffffff" d="M68.6 44.1l-0.3 0.19c-0.23 0.14-0.3 0.44-0.15 0.67 0.09 0.15 0.25 0.23 0.41 0.23 0.09 0 0.18-0.02 0.26-0.07l0.3-0.19c0.23-0.14 0.3-0.44 0.15-0.67C69.12 44.03 68.82 43.96 68.6 44.1z"/>
  <path fill="#ffffff" d="M67.25 44.94l-0.3 0.19c-0.23 0.14-0.3 0.44-0.15 0.67 0.09 0.15 0.25 0.23 0.41 0.23 0.09 0 0.18-0.02 0.26-0.07l0.3-0.19c0.23-0.14 0.3-0.44 0.15-0.67C67.78 44.87 67.48 44.8 67.25 44.94z"/>
  <path fill="#ffffff" d="M70.16 43.22c-0.22-0.14-0.52-0.08-0.67 0.14 -0.07 0.12-0.09 0.25-0.06 0.38 -0.03 0.12-0.01 0.26 0.06 0.38 0.09 0.15 0.25 0.23 0.41 0.23 0.09 0 0.18-0.02 0.26-0.07l0.18-0.11c0.14-0.09 0.23-0.24 0.23-0.41 0-0.17-0.08-0.32-0.22-0.41L70.16 43.22z"/>
  <path fill="#ffffff" d="M68.11 43.04l0.34 0.22c0.08 0.05 0.17 0.08 0.26 0.08 0.16 0 0.31-0.08 0.41-0.22 0.15-0.22 0.08-0.52-0.14-0.67l-0.34-0.22c-0.22-0.14-0.52-0.08-0.67 0.14C67.82 42.6 67.89 42.9 68.11 43.04z"/>
  <path fill="#ffffff" d="M66.6 41.49c-0.15 0.22-0.08 0.52 0.14 0.67l0.18 0.12c0.08 0.05 0.17 0.08 0.26 0.08 0.16 0 0.31-0.08 0.41-0.22 0.15-0.22 0.08-0.52-0.14-0.67l-0.18-0.12C67.05 41.2 66.75 41.26 66.6 41.49z"/>
  <path fill="#ffffff" d="M22.82 49.26c0.09 0 0.18-0.02 0.26-0.07l0.18-0.11c0.23-0.14 0.3-0.44 0.15-0.67 -0.14-0.23-0.44-0.3-0.67-0.15l-0.18 0.11c-0.23 0.14-0.29 0.44-0.15 0.67C22.51 49.18 22.66 49.26 22.82 49.26z"/>
  <path fill="#ffffff" d="M21.48 50.1c0.09 0 0.18-0.02 0.26-0.07l0.3-0.19c0.23-0.14 0.3-0.44 0.15-0.67 -0.14-0.23-0.44-0.3-0.67-0.15l-0.3 0.19c-0.23 0.14-0.3 0.44-0.15 0.67C21.16 50.02 21.32 50.1 21.48 50.1z"/>
  <path fill="#ffffff" d="M20.39 50.87l0.3-0.19c0.23-0.14 0.3-0.44 0.15-0.67 -0.14-0.23-0.44-0.3-0.67-0.15l-0.3 0.19c-0.23 0.14-0.3 0.44-0.15 0.67 0.09 0.15 0.25 0.23 0.41 0.23C20.22 50.94 20.31 50.92 20.39 50.87z"/>
  <path fill="#ffffff" d="M19.5 50.86c-0.14-0.23-0.44-0.3-0.67-0.15l-0.18 0.11c-0.14 0.09-0.23 0.24-0.23 0.41 0 0.17 0.08 0.32 0.22 0.41l0.18 0.12c0.08 0.05 0.17 0.08 0.26 0.08 0.16 0 0.31-0.08 0.41-0.22 0.08-0.11 0.1-0.25 0.07-0.38C19.59 51.11 19.57 50.97 19.5 50.86z"/>
  <path fill="#ffffff" d="M20.88 51.93l-0.34-0.22c-0.22-0.15-0.52-0.08-0.67 0.14 -0.15 0.22-0.08 0.52 0.14 0.67l0.34 0.22c0.08 0.05 0.17 0.08 0.26 0.08 0.16 0 0.31-0.08 0.41-0.22C21.17 52.37 21.1 52.07 20.88 51.93z"/>
  <path fill="#ffffff" d="M22.25 52.82l-0.18-0.12c-0.22-0.15-0.52-0.08-0.67 0.14 -0.15 0.23-0.08 0.52 0.14 0.67l0.18 0.12c0.08 0.05 0.17 0.08 0.26 0.08 0.16 0 0.31-0.08 0.41-0.22C22.53 53.26 22.47 52.96 22.25 52.82z"/>
</svg>
